<?xml version="1.0" encoding="UTF-8" standalone="no"?>
<!-- Created with Inkscape (http://www.inkscape.org/) -->

<svg
   width="1024mm"
   height="1024mm"
   viewBox="0 0 1024 1024"
   version="1.1"
   id="svg1"
   xml:space="preserve"
   inkscape:version="1.4.3 (0d15f75042, 2025-12-25)"
   sodipodi:docname="logo.svg"
   xmlns:inkscape="http://www.inkscape.org/namespaces/inkscape"
   xmlns:sodipodi="http://sodipodi.sourceforge.net/DTD/sodipodi-0.dtd"
   xmlns="http://www.w3.org/2000/svg"
   xmlns:svg="http://www.w3.org/2000/svg"><sodipodi:namedview
     id="namedview1"
     pagecolor="#ffffff"
     bordercolor="#000000"
     borderopacity="0.25"
     inkscape:showpageshadow="2"
     inkscape:pageopacity="0.0"
     inkscape:pagecheckerboard="true"
     inkscape:deskcolor="#d1d1d1"
     inkscape:document-units="mm"
     inkscape:zoom="0.12411643"
     inkscape:cx="938.63478"
     inkscape:cy="1760.4438"
     inkscape:window-width="1704"
     inkscape:window-height="996"
     inkscape:window-x="0"
     inkscape:window-y="0"
     inkscape:window-maximized="1"
     inkscape:current-layer="layer1" /><defs
     id="defs1" /><g
     inkscape:groupmode="layer"
     id="layer2"
     inkscape:label="wheel"><g
       id="g2"><path
         d="m 749.05867,1021.5762 c -13.45066,-4.9367 -17.76433,-11.5193 -21.52094,-32.84071 l -2.52187,-14.31346 -7.18142,-2.59287 -7.18143,-2.59288 -14.03108,8.01404 c -15.443,8.82047 -23.29016,10.62684 -32.71795,7.53148 -6.95276,-2.28276 -42.73396,-36.98286 -46.46961,-45.06559 -2.85913,-6.1862 -3.39435,-16.51121 -1.16474,-22.46838 0.80447,-2.14941 5.21456,-9.61769 9.80018,-16.59617 l 8.33749,-12.68817 -2.03031,-4.85926 c -2.0101,-4.81082 -2.16656,-4.88245 -15.70017,-7.18668 -18.11428,-3.08414 -25.13303,-5.73275 -31.23639,-11.78744 -7.48452,-7.42484 -8.4427,-12.84915 -7.84347,-44.40254 0.56158,-29.57048 1.3984,-33.42013 8.8751,-40.82814 6.08655,-6.03062 10.67819,-7.85166 26.66421,-10.57505 11.73511,-1.99918 15.21839,-3.13538 17.23072,-5.62053 5.05031,-6.23687 4.66131,-9.03949 -2.8441,-20.49068 -10.11506,-15.43277 -11.79027,-20.11645 -10.948,-30.6092 0.83989,-10.46329 2.12447,-12.47721 20.81525,-32.633 17.2604,-18.61336 23.91087,-23.14824 33.94718,-23.14824 8.32958,0 11.73506,1.46362 26.42086,11.3554 5.53797,3.73015 11.02599,7.1493 12.19558,7.59813 1.16961,0.44882 4.83142,-0.6189 8.13738,-2.37269 l 6.01081,-3.18874 2.35907,-16.67136 c 2.6134,-18.46874 4.67946,-24.63574 10.23696,-30.55634 6.74225,-7.18276 10.09122,-7.81206 41.52873,-7.80362 16.05401,0.005 31.20303,0.66102 34.15455,1.48061 6.22798,1.72942 15.25165,9.42666 17.39537,14.83836 1.21606,3.06989 8.53573,37.22438 8.53573,39.82881 0,0.38806 2.51742,1.98987 5.59428,3.55957 l 5.59429,2.85397 8.05827,-6.20069 c 4.43206,-3.41039 11.83048,-8.1176 16.44094,-10.46046 18.96353,-9.63657 22.97094,-8.27252 48.01577,16.34368 10.6096,10.42799 20.48005,21.27775 21.93435,24.11055 1.84423,3.59234 2.64421,8.03791 2.64421,14.69431 0,8.95391 -0.4127,10.2228 -6.67771,20.53174 -3.67272,6.04337 -7.70642,12.55525 -8.96378,14.4708 -2.16123,3.29261 -2.11655,3.78541 0.81847,9.02351 3.09634,5.526 3.14714,5.55016 19.15398,9.10819 18.75465,4.16879 24.8298,7.47243 30.04007,16.33562 l 3.80535,6.47329 -0.45822,30.50471 c -0.48461,32.26097 -1.26939,36.76175 -7.59038,43.53163 -4.64635,4.97631 -9.44567,6.98158 -23.75679,9.92622 -20.36052,4.18933 -20.13972,4.09804 -22.89281,9.46436 l -2.53835,4.94779 7.51821,10.85282 c 9.63459,13.90789 11.54196,18.63732 11.54196,28.619 0,10.54929 -3.33402,15.61305 -23.18529,35.2141 -20.09534,19.84204 -23.46493,21.986 -34.55475,21.986 -10.13414,0 -12.49064,-0.85514 -27.97319,-10.15109 l -11.44281,-6.87041 -6.60421,2.84995 -6.60422,2.84993 -2.37489,13.64315 c -3.7727,21.67307 -9.38158,30.01417 -22.61329,33.62847 -8.31502,2.2713 -55.60567,1.8182 -62.18315,-0.5958 z m 53.18544,-43.68359 c 3.38615,-15.44373 6.63219,-24.2523 10.08422,-27.36486 5.54635,-5.00088 27.37097,-13.3906 36.39576,-13.99109 7.63909,-0.50827 9.24982,-0.0679 19.43526,5.31385 6.10822,3.22744 12.80586,7.06464 14.88363,8.52715 l 3.77778,2.65906 13.38603,-12.97929 13.38602,-12.9793 -10.01801,-15.19855 c -9.64622,-14.6345 -9.99536,-15.45616 -9.40754,-22.13972 0.7563,-8.5994 8.47321,-27.31569 13.73204,-33.30518 4.18927,-4.77131 10.35599,-7.53682 24.81284,-11.12752 4.96294,-1.23265 11.20998,-2.81009 13.88233,-3.50541 l 4.8588,-1.26423 v -18.60248 -18.60246 l -15.29446,-4.4096 c -23.30474,-6.71904 -25.09542,-8.02883 -33.24927,-24.32018 -5.74978,-11.48796 -6.90418,-15.06524 -6.94118,-21.5094 -0.0402,-7.01276 0.77131,-9.13261 8.75019,-22.85557 l 8.79455,-15.12587 -12.83307,-12.88667 -12.83309,-12.88666 -15.35773,10.45056 c -15.24412,10.37325 -15.4089,10.44376 -22.27644,9.53277 -6.77423,-0.89864 -27.59637,-8.71758 -33.74722,-12.67246 -4.9278,-3.16848 -8.38262,-11.586 -12.59555,-30.68861 l -3.9198,-17.77344 -10.55713,-0.69411 c -5.80643,-0.38177 -14.58902,-0.48807 -19.51684,-0.23625 l -8.95971,0.45787 -1.67585,10.64799 c -4.2891,27.25197 -7.77933,34.96729 -17.7705,39.28245 -12.25568,5.29318 -28.6145,10.93015 -31.71992,10.93015 -4.76937,0 -15.56333,-5.02806 -25.73363,-11.9873 -7.66521,-5.24509 -9.69114,-6.0635 -11.979,-4.83907 -4.09123,2.18956 -21.13662,21.01243 -21.13662,23.34071 0,1.10641 2.81416,5.95533 6.25369,10.77541 9.18973,12.87826 12.29648,20.66321 11.26099,28.21803 -1.08773,7.93573 -11.17397,31.02419 -15.16184,34.70696 -3.45446,3.19018 -22.66578,10.25192 -34.62925,12.72908 l -7.98233,1.65282 v 18.61627 18.61626 l 3.81764,0.85261 c 13.98708,3.12379 26.91701,6.93192 32.27641,9.50607 5.62994,2.70411 6.90195,4.2974 12.87694,16.12966 7.70023,15.24873 9.87832,22.29065 8.75182,28.29535 -0.44494,2.37178 -4.87185,10.47445 -9.83757,18.0059 l -9.02858,13.69358 12.60831,12.85689 12.60829,12.8569 8.9149,-5.41598 c 4.90318,-2.97879 12.35465,-7.10302 16.55884,-9.16493 l 7.64396,-3.74895 14.22203,4.6387 c 7.82212,2.55128 17.73359,6.39964 22.02551,8.55189 9.01435,4.52039 10.26211,6.81294 15.35777,28.21749 l 3.1883,13.39257 18.66723,-0.38406 18.6672,-0.38405 z m -30.57743,-80.48147 c -29.059,-3.75038 -53.16955,-23.41189 -62.70737,-51.13621 -4.53707,-13.18827 -4.49596,-35.89343 0.0885,-48.85251 6.79139,-19.19761 21.57427,-35.76158 39.58964,-44.35951 11.17392,-5.33282 18.53198,-6.92984 32.11869,-6.97114 21.20446,-0.0646 38.67277,7.13085 53.45251,22.01746 14.61642,14.72212 21.88912,30.50406 23.10421,50.13667 1.38256,22.33838 -5.88568,41.47048 -21.62285,56.91752 -17.39613,17.07542 -40.87723,25.23495 -64.0233,22.24772 z m 28.35256,-38.09448 c 15.11025,-7.39275 23.62878,-21.19366 23.43826,-37.97246 -0.14075,-12.39825 -4.4949,-22.31832 -13.39797,-30.5249 -20.65953,-19.0433 -53.38237,-12.94961 -65.99454,12.28957 -9.12402,18.25878 -4.22174,39.91523 11.8021,52.13718 12.40879,9.46465 29.84201,11.07191 44.15215,4.07061 z"
         style="fill:#000000;stroke-width:1.537;stroke-dasharray:none;fill-rule:nonzero;stroke:#000000;stroke-opacity:1"
         id="path1-6" /><path
         style="fill:#fbb92c;fill-opacity:1;fill-rule:nonzero;stroke:#000000;stroke-width:33.0954;stroke-dasharray:none;stroke-opacity:1"
         d="m 2885.6359,3724.4952 c -1.3467,-3.9168 -7.8475,-28.732 -14.4462,-55.1448 -6.5987,-26.4129 -15.6687,-55.1225 -20.1555,-63.799 -9.5102,-18.3906 -55.002,-41.4794 -127.9032,-64.9156 l -48.5202,-15.5982 -39.7853,20.4972 c -21.8819,11.2735 -49.4457,26.2379 -61.2529,33.2543 l -21.4677,12.7573 -42.625,-42.3405 c -23.4437,-23.2873 -42.6249,-44.7123 -42.6249,-47.6111 0,-2.8989 13.0686,-25.6435 29.0413,-50.5436 35.4869,-55.3208 41.1668,-73.1414 32.9904,-103.5063 -10.1361,-37.6423 -52.2037,-117.6176 -67.6178,-128.5491 -14.9847,-10.6268 -90.2773,-36.0923 -127.1834,-43.0159 l -21.403,-4.0152 1.5993,-65.5072 1.5994,-65.5072 40.7143,-10.3301 c 22.3929,-5.6815 58.2848,-17.6021 79.7598,-26.4903 38.7236,-16.0271 39.2196,-16.5117 60.1959,-58.8026 11.6328,-23.4533 24.9601,-57.4151 29.6163,-75.4707 10.8054,-41.9007 3.4834,-69.1495 -33.5441,-124.8338 -14.812,-22.275 -24.4167,-42.333 -22.1405,-46.2367 11.3414,-19.4511 61.1627,-72.3174 71.1345,-75.4823 7.4101,-2.3519 19.0046,1.3588 32.8266,10.5058 11.7535,7.778 37.6896,22.3801 57.6358,32.4489 42.8062,21.6085 53.4207,21.1249 127.1093,-5.7902 80.6584,-29.4608 93.6606,-46.6948 111.6864,-148.0363 l 9.6268,-54.1227 20.0511,-5.0309 c 11.0281,-2.7669 41.9849,-3.2037 68.7928,-0.9706 l 48.7417,4.0601 15.1192,63.6391 c 21.6355,91.0679 30.5964,108.3525 65.2872,125.9316 36.2694,18.3792 109.5631,43.1042 127.7757,43.1042 7.6622,0 40.0778,-17.0655 72.0347,-37.9233 l 58.1036,-37.9234 44.8955,44.6323 44.8957,44.6323 -14.2322,23.201 c -59.367,96.7793 -63.2466,126.7642 -25.989,200.8659 12.6656,25.1907 31.028,52.5325 40.8053,60.7595 10.321,8.6846 43.3146,23.0148 78.6666,34.1676 l 60.8897,19.2093 1.5977,65.4592 1.5976,65.4592 -58.5689,15.5859 c -79.2059,21.0777 -100.7676,34.3603 -122.6123,75.5326 -22.7276,42.8364 -37.6963,95.2181 -33.8982,118.6234 1.6525,10.183 17.3152,40.6979 34.806,67.8108 17.4908,27.113 31.8015,51.1939 31.8015,53.5133 0,6.7638 -82.2359,86.5401 -89.2082,86.5401 -3.4826,0 -26.4956,-11.5195 -51.1402,-25.5989 -24.6445,-14.0795 -53.4384,-27.2392 -63.9864,-29.244 -26.9975,-5.1311 -75.6189,6.8095 -129.2935,31.7526 -43.0848,20.0219 -46.658,23.0677 -57.808,49.277 -6.5365,15.3648 -16.2518,47.8047 -21.5896,72.0887 l -9.7051,44.1527 h -65.1239 c -46.9951,0 -65.8054,-1.9824 -67.5725,-7.1214 z m 164.9085,-342.5422 c 168.2924,-61.0869 242.813,-242.5225 164.8967,-401.4748 -24.2344,-49.4389 -75.4901,-104.5017 -121.9024,-130.9568 -65.7488,-37.4769 -175.3249,-45.5696 -245.6352,-18.1413 -73.2672,28.5817 -149.6493,107.7213 -172.8736,179.1143 -12.7011,39.0443 -17.1846,112.5583 -9.3949,154.0476 32.4606,172.8917 218.3284,277.8766 384.9094,217.411 z"
         id="path2"
         transform="scale(0.26458333)" /></g></g><g
     inkscape:label="Layer 1"
     inkscape:groupmode="layer"
     id="layer1"><path
       style="display:inline;fill:#30adb1;fill-opacity:1;fill-rule:nonzero;stroke:#000000;stroke-width:1.537;stroke-dasharray:none;stroke-opacity:1"
       d="m 172.67053,182.26333 c 0,0 -18.11975,48.49697 9.05987,92.19753 0,0 22.32903,13.82255 77.34783,30.40355 l 86.10818,216.30677 c 0,0 -94.58711,0 -122.47335,70.09244 0,0 -26.37887,53.13458 24.11783,115.6902 l 215.17624,201.98681 -290.54445,-1.13053 -46.75619,-1.02336 c 0,0 -45.565831,-5.32933 -59.422108,-54.6257 L 63.685581,685.08631 63.419114,256.87406 c 0,0 -0.799401,-33.57483 24.781419,-53.29337 0,0 17.586817,-27.97904 84.469997,-21.31736 z"
       id="path3"
       sodipodi:insensitive="true" /><path
       style="display:inline;fill:#30adb1;fill-opacity:1;fill-rule:nonzero;stroke:#000000;stroke-width:1.537;stroke-dasharray:none;stroke-opacity:1"
       d="m 502.70597,180.13002 c 0,0 19.21889,30.14729 29.3936,62.55562 l 45.22093,114.18284 c 0,0 52.3809,8.66734 87.80396,19.59573 0,0 50.4967,-7.53682 99.1092,35.7999 0,0 46.35855,40.72956 65.54416,167.56779 0,0 29.79663,11.62014 38.08713,42.5211 0,0 56.14932,-13.37785 93.83342,44.09041 l 0.37684,-368.17371 -0.9421,-46.91672 c 0,0 -2.82631,-46.91671 -54.45353,-66.1356 0,0 -15.26206,-2.07263 -18.27679,-1.69579 l -36.17674,-1.13052 z"
       id="path4" /><path
       style="fill:#000000;fill-opacity:1;stroke-width:1.5366"
       d="M 114.62048,945.04929 C 69.018431,936.58183 32.264649,897.10623 25.163912,848.96794 24.161638,842.17316 23.691291,744.27326 23.691291,542.45715 c 0,-336.28779 -1.032903,-307.19715 11.839864,-333.46283 6.243739,-12.73979 9.59865,-17.63202 18.645367,-27.18926 16.402248,-17.32784 36.626128,-29.90419 56.223868,-34.96319 5.04847,-1.30322 14.51928,-2.1519 24.29407,-2.17697 l 16.02005,-0.0412 9.02351,-15.50311 C 171.20518,109.41912 180.40463,97.340487 196.33051,81.075627 243.65101,32.747911 302.02958,5.8885363 367.56347,2.2930923 416.61182,-0.39788709 486.20585,17.762737 510.24376,39.52565 c 6.15977,5.576796 6.73735,6.655178 7.29734,13.624201 0.50476,6.281654 0.0562,8.369958 -2.63903,12.285812 -4.38345,6.368612 -11.6453,10.183428 -17.91655,9.411966 -2.72348,-0.335043 -9.90757,-3.484915 -15.96468,-6.999748 -18.37343,-10.661771 -46.7203,-19.70673 -74.35565,-23.725476 -49.88846,-7.25483 -101.91225,5.186387 -148.38841,35.486321 -16.43073,10.711948 -45.44495,39.389744 -58.83824,58.156044 -14.32039,20.06537 -23.36782,44.38908 -23.36782,44.38908 l -3.61809,0.0343 -19.8926,0.0206 c -33.16109,0.0342 -48.71358,5.53474 -66.549196,23.53686 -14.924074,15.06339 -20.424426,26.46329 -22.188527,45.98743 -1.79933,19.91387 -0.224852,592.50987 1.652271,600.88594 5.662936,25.26918 29.088707,48.0804 55.018332,53.57501 7.86904,1.66748 36.27517,1.98447 174.59767,1.94834 l 165.19964,-0.0431 2.55232,0.13452 c 0.67116,0.0354 8.33775,6.63656 17.03479,14.74789 16.41951,15.31373 18.89824,19.59719 13.12762,22.68554 -4.30592,2.30445 -365.82546,1.71411 -378.38455,-0.61787 z m 405.3638,-59.56726 c -8.38598,-3.66379 -33.30139,-24.08524 -75.65865,-62.01214 -14.12526,-12.64784 -37.05175,-33.09993 -50.94772,-45.44911 -48.51172,-43.11171 -100.78034,-91.00473 -107.72565,-98.70755 -13.96557,-15.48877 -19.71448,-29.09044 -19.71448,-46.64359 0,-10.65078 0.5489,-13.66521 3.72055,-20.4321 10.46347,-22.32445 35.41325,-37.23706 62.69203,-37.47129 24.18885,-0.20771 43.80297,7.66233 81.43415,32.67487 13.36175,8.88122 24.45084,15.69026 24.64245,15.1312 0.19162,-0.55908 -7.51458,-21.31761 -17.1249,-46.13006 -9.61029,-24.81247 -21.40792,-55.4212 -26.21694,-68.01941 -4.80902,-12.59821 -15.89958,-41.33461 -24.64568,-63.85869 -8.74609,-22.52406 -20.45125,-52.82223 -26.01146,-67.32926 -5.56022,-14.50702 -15.76126,-41.05695 -22.66901,-58.99986 -11.8289,-30.72564 -12.59529,-33.35558 -13.17422,-45.20877 -1.15875,-23.72459 7.92987,-46.25839 26.05574,-64.60116 26.4955,-26.81259 63.81515,-31.63284 98.24314,-12.68923 8.24499,4.53672 27.81778,23.91006 32.75695,32.42315 2.04421,3.52337 7.8186,16.95452 12.83197,29.84699 16.20958,41.68475 57.83109,149.4928 59.23465,153.4296 0.73186,2.05277 1.58815,2.08656 8.89634,0.35115 4.4476,-1.05614 14.3336,-2.30769 21.96888,-2.78125 11.33041,-0.70274 16.05399,-0.34003 25.69626,1.97312 15.98577,3.83494 25.9029,7.69702 35.58838,13.85932 l 8.12697,5.17071 9.0235,-2.34517 c 28.94257,-7.52204 66.27921,2.85513 88.32108,24.54753 8.66216,8.52483 11.0184,12.04774 19.03421,28.45876 9.95364,20.37838 24.52159,61.61341 24.51839,69.40003 -0.004,6.92234 -4.57158,13.57604 -11.47321,16.70901 -7.03333,3.19276 -10.99089,3.38459 -16.00492,0.77579 -7.073,-3.68007 -9.91751,-8.58089 -17.42376,-30.0196 -15.2813,-43.64511 -17.47899,-48.33618 -26.5706,-56.71653 -7.51282,-6.9251 -17.89712,-12.03627 -28.57341,-14.06395 -7.33104,-1.39232 -15.16899,-0.75922 -15.16899,1.22529 0,0.54083 1.91385,6.47101 4.25297,13.1782 2.892,8.29247 3.97188,13.47464 3.37459,16.19408 -2.61369,11.9001 -17.50655,18.81271 -28.3974,13.18082 -5.796,-2.99722 -9.11749,-7.8789 -14.02968,-20.61978 -2.40407,-6.23551 -5.50029,-13.55183 -6.88047,-16.2585 -3.30973,-6.4907 -13.96002,-16.18742 -21.38827,-19.47329 -6.94278,-3.0711 -24.28513,-5.80975 -29.67634,-4.6864 -6.67857,1.39161 -15.53751,3.75004 -15.53751,4.13639 0,0.20732 2.72207,7.15405 6.04905,15.43719 9.9378,24.74205 12.43243,33.13264 11.43359,38.45683 -2.59219,13.81755 -20.83754,20.5822 -31.946,11.84428 -4.9707,-3.90997 -5.04925,-4.08501 -25.78429,-57.45258 -76.78783,-197.6355 -78.87028,-202.9354 -82.73322,-210.55857 -5.14384,-10.15087 -16.88456,-21.11701 -26.49,-24.74238 -6.41088,-2.41963 -10.11375,-2.92755 -17.81112,-2.44314 -22.50231,1.41616 -37.75697,17.17065 -39.25695,40.54321 -0.76878,11.9793 -0.57067,12.65788 16.63776,56.98942 22.69626,58.46899 49.78299,128.67829 64.26959,166.58786 7.8778,20.61527 25.31181,65.74112 38.74222,100.27969 25.37516,65.25653 26.47913,69.10184 22.54334,78.52151 -4.23792,10.14282 -17.72659,17.36107 -29.4418,15.75531 -9.05346,-1.2409 -10.68309,-2.19643 -46.42363,-27.22055 -19.94462,-13.96445 -39.75335,-26.64997 -47.89401,-30.67137 -27.82166,-13.74354 -44.7486,-14.50161 -56.71041,-2.5398 -5.16478,5.16477 -5.38107,5.73823 -4.80131,12.72937 0.84958,10.24492 4.73641,15.29896 27.86066,36.2274 10.87281,9.84033 23.20461,21.08837 27.40402,24.99565 19.28418,17.94269 40.46055,37.05869 67.32926,60.77849 16.03408,14.15498 34.46285,30.57903 40.95285,36.49792 14.85386,13.54678 46.92924,40.45181 62.71819,52.60835 9.11689,7.01948 12.44878,10.49126 13.69635,14.27143 3.48839,10.56993 -0.91541,20.77841 -10.77598,24.97995 -5.50613,2.34612 -9.55672,2.33943 -14.96809,-0.0247 z M 150.8446,836.05712 c -10.76932,-3.40497 -17.90286,-17.29405 -14.80024,-28.81626 2.09065,-7.76405 6.05286,-12.23749 13.28558,-14.99969 15.24837,-5.82341 29.57978,3.08144 30.91732,19.21057 1.39578,16.83138 -13.79194,29.54111 -29.40266,24.60538 z m 94.00601,-1.57858 c -7.79449,-1.38842 -12.53243,-4.7161 -15.78096,-11.08373 -3.60034,-7.05725 -3.42545,-15.84497 0.44988,-22.60455 3.96756,-6.92046 10.77421,-10.55625 19.76261,-10.55625 22.16997,0 30.45021,28.51254 11.83139,40.74069 -6.32547,4.15434 -9.17028,4.76725 -16.26292,3.50384 z M 977.4863,685.39611 961.94976,666.47752 962.07038,464.24457 c 0.0776,-129.98854 -0.38488,-206.17118 -1.29456,-213.25722 -2.55951,-19.93778 -10.13664,-34.67312 -24.81542,-48.25894 -4.36886,-4.04357 -11.66742,-9.32958 -16.21902,-11.74671 -17.13599,-9.10007 -9.3983,-8.79342 -221.89136,-8.79342 -105.71832,0 -193.19066,-0.37434 -194.38294,-0.83187 -4.72929,-1.8148 -8.26522,-10.30053 -8.37028,-20.0875 -0.087,-8.09572 0.36091,-9.87523 3.26477,-12.97283 l 3.36551,-3.59008 h 198.1531 c 213.88594,0 207.16423,-0.21649 227.88555,7.33989 13.1685,4.80212 23.37372,11.26839 35.3567,22.40286 11.97275,11.12499 19.45215,21.56836 26.80075,37.42155 11.26582,24.30377 10.38942,2.27479 10.38942,261.15262 v 230.44657 l -3.64493,0.42259 c -3.17695,0.36836 -5.63956,-2.00626 -19.18142,-18.49597 z M 229.15035,255.5932 c -10.6591,-4.25035 -13.60205,-12.74427 -10.42535,-30.08945 5.7997,-31.66707 19.89229,-59.22071 42.26999,-82.64579 18.43319,-19.29596 34.51083,-30.40692 57.69561,-39.87243 40.11749,-16.378537 77.78475,-18.128041 115.22328,-5.351709 16.97377,5.792479 35.47999,15.083649 38.52185,19.340109 6.27367,8.77872 3.05435,23.15823 -6.50781,29.06796 -6.23122,3.8511 -10.95681,3.55707 -19.35097,-1.204 -9.77661,-5.54521 -28.92157,-12.06748 -43.51669,-14.82518 -20.23324,-3.82303 -45.64575,-0.94113 -68.11727,7.72481 -21.28203,8.20722 -44.66546,28.00132 -59.40905,50.28986 -10.09715,15.26431 -14.41273,26.05724 -17.88467,44.72818 -2.94547,15.83975 -4.81395,19.34131 -11.81561,22.14283 -6.31732,2.52768 -11.54121,2.74525 -16.68331,0.69481 z"
       id="path1"
       sodipodi:nodetypes="ssssssccssssssssssscccssssscssssssssssssssssssssssssssssscssscsssssssssssssssssssssssssssssssssssssssssssssssssssccsssssssscssssscsscssssssssssssss"
       sodipodi:insensitive="true" /></g></svg>
